<svg viewBox="0 0 400 280" xmlns="http://www.w3.org/2000/svg">
  <defs>
    <clipPath id="ecom-clip"><rect width="400" height="280" rx="14"/></clipPath>
  </defs>
  <g clip-path="url(#ecom-clip)">
    <rect width="400" height="280" fill="#EFEDE8"/>
    <rect width="400" height="42" fill="#E4E1D9"/>
    <circle cx="18" cy="21" r="4" fill="#1E3A5F" opacity=".28"/>
    <circle cx="36" cy="21" r="4" fill="#1E3A5F" opacity=".28"/>
    <circle cx="54" cy="21" r="4" fill="#1E3A5F" opacity=".28"/>
    <rect x="70" y="12" width="276" height="18" rx="9" fill="#F8F7F3" stroke="#00000014"/>
    <text x="80" y="24.5" font-family="ui-monospace, SFMono-Regular, Menlo, monospace" font-size="11" fill="#1E3A5F" opacity=".55">shopfrontier.com</text>
    <g transform="translate(354,13)" stroke="#1E3A5F" stroke-width="1.6" stroke-linecap="round" stroke-linejoin="round" fill="none" opacity=".7">
      <circle cx="6" cy="15.5" r="1.4" fill="#1E3A5F" stroke="none"/>
      <circle cx="13.5" cy="15.5" r="1.4" fill="#1E3A5F" stroke="none"/>
      <path d="M1 2h2l1.8 8.4A1.5 1.5 0 0 0 6.3 11.6H15a1.5 1.5 0 0 0 1.5-1.2L17.5 4H4"/>
    </g>

    <rect x="24" y="66" width="160" height="12" rx="6" fill="#1E3A5F"/>

    <rect x="24" y="94" width="76" height="76" rx="8" fill="#C9D6E3"/>
    <rect x="112" y="94" width="76" height="76" rx="8" fill="#B8C9DC"/>
    <rect x="200" y="94" width="76" height="76" rx="8" fill="#A6BBD4"/>
    <rect x="288" y="94" width="76" height="76" rx="8" fill="#94ADCB"/>

    <rect x="36" y="178" width="52" height="5" rx="2.5" fill="#1E3A5F" opacity=".35"/>
    <rect x="124" y="178" width="52" height="5" rx="2.5" fill="#1E3A5F" opacity=".35"/>
    <rect x="212" y="178" width="52" height="5" rx="2.5" fill="#1E3A5F" opacity=".35"/>
    <rect x="300" y="178" width="52" height="5" rx="2.5" fill="#1E3A5F" opacity=".35"/>

    <rect x="24" y="204" width="124" height="30" rx="15" fill="#1E3A5F"/>
    <text x="86" y="223.5" font-family="-apple-system, BlinkMacSystemFont, 'Segoe UI', Roboto, Helvetica, Arial, sans-serif" font-size="12.5" font-weight="700" fill="#FFFFFF" text-anchor="middle">Add to Cart</text>
  </g>
  <rect x="0.5" y="0.5" width="399" height="279" rx="13.5" fill="none" stroke="#DAD7CE"/>
</svg>
