<svg viewBox="0 0 400 280" xmlns="http://www.w3.org/2000/svg">
  <defs>
    <clipPath id="agency-clip"><rect width="400" height="280" rx="14"/></clipPath>
  </defs>
  <g clip-path="url(#agency-clip)">
    <rect width="400" height="280" fill="#16181C"/>
    <rect width="400" height="42" fill="#1D1F24"/>
    <circle cx="18" cy="21" r="4" fill="#F2F1EE" opacity=".25"/>
    <circle cx="36" cy="21" r="4" fill="#F2F1EE" opacity=".25"/>
    <circle cx="54" cy="21" r="4" fill="#F2F1EE" opacity=".25"/>
    <rect x="70" y="12" width="306" height="18" rx="9" fill="#24262B" stroke="#34363C"/>
    <text x="80" y="24.5" font-family="ui-monospace, SFMono-Regular, Menlo, monospace" font-size="11" fill="#F2F1EE" opacity=".5">formwork.design</text>

    <rect x="24" y="66" width="32" height="32" rx="8" fill="#6D5DFC"/>
    <text x="40" y="88.5" font-family="Georgia, 'Times New Roman', serif" font-style="italic" font-weight="700" font-size="16" fill="#FFFFFF" text-anchor="middle">F</text>

    <rect x="24" y="114" width="228" height="13" rx="6.5" fill="#F2F1EE"/>
    <rect x="24" y="136" width="276" height="9" rx="4.5" fill="#F2F1EE" opacity=".45"/>

    <rect x="24" y="156" width="110" height="82" rx="8" fill="#FFFFFF" opacity=".08"/>
    <rect x="144" y="156" width="110" height="82" rx="8" fill="#FFFFFF" opacity=".08"/>
    <rect x="264" y="156" width="110" height="82" rx="8" fill="#FFFFFF" opacity=".08"/>
  </g>
  <rect x="0.5" y="0.5" width="399" height="279" rx="13.5" fill="none" stroke="#2A2C31"/>
</svg>
