<svg viewBox="0 0 400 280" xmlns="http://www.w3.org/2000/svg">
  <defs>
    <clipPath id="bikes-clip"><rect width="400" height="280" rx="14"/></clipPath>
  </defs>
  <g clip-path="url(#bikes-clip)">
    <rect width="400" height="280" fill="#ECF1EA"/>
    <rect width="400" height="42" fill="#E1E9E0"/>
    <circle cx="18" cy="21" r="4" fill="#33413A" opacity=".28"/>
    <circle cx="36" cy="21" r="4" fill="#33413A" opacity=".28"/>
    <circle cx="54" cy="21" r="4" fill="#33413A" opacity=".28"/>
    <rect x="70" y="12" width="306" height="18" rx="9" fill="#F7FAF6" stroke="#00000014"/>
    <text x="80" y="24.5" font-family="ui-monospace, SFMono-Regular, Menlo, monospace" font-size="11" fill="#33413A" opacity=".55">wheelhouse-bikes.com</text>

    <!-- "bike" icon by Tabler Icons, via Blade UI Kit (blade-icons) — MIT License -->
    <g transform="translate(24,66) scale(2.5)" stroke="#C2410C" stroke-width="2" stroke-linecap="round" stroke-linejoin="round" fill="none">
      <path d="M2 18a3 3 0 1 0 6 0a3 3 0 1 0 -6 0"/>
      <path d="M16 18a3 3 0 1 0 6 0a3 3 0 1 0 -6 0"/>
      <path d="M12 19l0 -4l-3 -3l5 -4l2 3l3 0"/>
      <path d="M16 5a1 1 0 1 0 2 0a1 1 0 1 0 -2 0"/>
    </g>

    <rect x="24" y="140" width="140" height="12" rx="6" fill="#33413A"/>

    <rect x="24" y="168" width="120" height="30" rx="15" fill="#C2410C"/>
    <text x="84" y="187.5" font-family="-apple-system, BlinkMacSystemFont, 'Segoe UI', Roboto, Helvetica, Arial, sans-serif" font-size="12.5" font-weight="700" fill="#FFFFFF" text-anchor="middle">Shop Bikes</text>
  </g>
  <rect x="0.5" y="0.5" width="399" height="279" rx="13.5" fill="none" stroke="#D7E2D4"/>
</svg>
