<svg width="400" height="300" viewBox="0 0 400 300" fill="none" xmlns="http://www.w3.org/2000/svg">
  <rect width="400" height="300" rx="16" fill="#F3F4F6"/>
  <rect x="32" y="28" width="336" height="228" rx="12" fill="#FFFFFF" stroke="#E5E7EB" stroke-width="2"/>
  <circle cx="54" cy="50" r="4" fill="#D1D5DB"/>
  <circle cx="70" cy="50" r="4" fill="#D1D5DB"/>
  <circle cx="86" cy="50" r="4" fill="#D1D5DB"/>
  <rect x="110" y="44" width="220" height="12" rx="6" fill="#E5E7EB"/>
  <rect x="56" y="90" width="180" height="16" rx="8" fill="#374151"/>
  <rect x="56" y="120" width="250" height="10" rx="5" fill="#9CA3AF"/>
  <rect x="56" y="138" width="160" height="10" rx="5" fill="#9CA3AF"/>
  <rect x="56" y="166" width="100" height="22" rx="11" fill="#6B7280"/>
  <circle cx="40" cy="36" r="24" fill="#374151" stroke="#F3F4F6" stroke-width="4"/>
  <path d="M42.7 22.8L28.9 40.8H37.4L35.1 51.8L50.3 32H41.4L42.7 22.8Z" fill="#F9FAFB"/>
  <rect x="316" y="210" width="64" height="56" rx="10" fill="#374151" stroke="#F3F4F6" stroke-width="4"/>
  <rect x="328" y="244" width="8" height="14" rx="2" fill="#9CA3AF" fill-opacity="0.6"/>
  <rect x="340" y="236" width="8" height="22" rx="2" fill="#9CA3AF" fill-opacity="0.8"/>
  <rect x="352" y="226" width="8" height="32" rx="2" fill="#F9FAFB"/>
</svg>
