<svg class="w-64 h-64" viewBox="0 0 48 48" xmlns="http://www.w3.org/2000/svg">
  <defs>
    <linearGradient id="nightflowerEmberGradient" x1="10%" y1="0%" x2="90%" y2="100%">
      <stop offset="0%" style="stop-color:#FB923C;stop-opacity:1" />
      <stop offset="100%" style="stop-color:#C2410C;stop-opacity:1" />
    </linearGradient>
  </defs>
  <g fill="url(#nightflowerEmberGradient)">
    <path d="M24 24C20 20 20 8 24 4C28 8 28 20 24 24Z" transform="rotate(0 24 24)"/>
    <path d="M24 24C20 20 20 8 24 4C28 8 28 20 24 24Z" transform="rotate(60 24 24)"/>
    <path d="M24 24C20 20 20 8 24 4C28 8 28 20 24 24Z" transform="rotate(120 24 24)"/>
    <path d="M24 24C20 20 20 8 24 4C28 8 28 20 24 24Z" transform="rotate(180 24 24)"/>
    <path d="M24 24C20 20 20 8 24 4C28 8 28 20 24 24Z" transform="rotate(240 24 24)"/>
    <path d="M24 24C20 20 20 8 24 4C28 8 28 20 24 24Z" transform="rotate(300 24 24)"/>
  </g>
  <circle cx="24" cy="24" r="3" fill="url(#nightflowerEmberGradient)"/>
</svg>
